<?xml version="1.0"?>
<svg xmlns="http://www.w3.org/2000/svg" xmlns:xlink="http://www.w3.org/1999/xlink" id="Gradient" viewBox="0 0 512 512" width="512" height="512"><defs><linearGradient id="linear-gradient" x1="264" y1="496" x2="264" y2="16" gradientUnits="userSpaceOnUse"><stop offset="0" stop-color="#27c1e6"/><stop offset="0.5" stop-color="#c275e9"/><stop offset="1" stop-color="#f2515d"/></linearGradient></defs><path d="M88,104a24.028,24.028,0,0,1,24-24V72a8,8,0,0,1,16,0v8h8a8,8,0,0,1,0,16H112a8,8,0,0,0,0,16h16a24,24,0,0,1,0,48v8a8,8,0,0,1-16,0v-8h-8a8,8,0,0,1,0-16h24a8,8,0,0,0,0-16H112A24.028,24.028,0,0,1,88,104Zm128-8h56a8,8,0,0,0,0-16H216a8,8,0,0,0,0,16Zm-40,64h56a8,8,0,0,0,0-16H176a8,8,0,0,0,0,16Zm0-32h96a8,8,0,0,0,0-16H176a8,8,0,0,0,0,16ZM96,208H272a8,8,0,0,0,0-16H96a8,8,0,0,0,0,16Zm184,24a8,8,0,0,0-8-8H96a8,8,0,0,0,0,16H272A8,8,0,0,0,280,232ZM168,256H128a8,8,0,0,0,0,16h40a8,8,0,0,0,0-16Zm0,32H128a8,8,0,0,0,0,16h40a8,8,0,0,0,0-16Zm0,32H128a8,8,0,0,0,0,16h40a8,8,0,0,0,0-16Zm104-64H248a8,8,0,0,0,0,16h24a8,8,0,0,0,0-16Zm0,32H248a8,8,0,0,0,0,16h24a8,8,0,0,0,0-16ZM240,416H128a8,8,0,0,0,0,16H240a8,8,0,0,0,0-16ZM184,96a8,8,0,1,0-8-8A8,8,0,0,0,184,96ZM96,256a8,8,0,1,0,8,8A8,8,0,0,0,96,256Zm0,32a8,8,0,1,0,8,8A8,8,0,0,0,96,288Zm0,32a8,8,0,1,0,8,8A8,8,0,0,0,96,320Zm72,32H128a8,8,0,0,0,0,16h40a8,8,0,0,0,0-16Zm-72,0a8,8,0,1,0,8,8A8,8,0,0,0,96,352Zm72,32H128a8,8,0,0,0,0,16h40a8,8,0,0,0,0-16Zm-72,0a8,8,0,1,0,8,8A8,8,0,0,0,96,384Zm376-16a103.959,103.959,0,0,1-160,87.6V488a8,8,0,0,1-12.438,6.656L280,481.615l-19.562,13.041a8,8,0,0,1-8.876,0L232,481.615l-19.562,13.041a8,8,0,0,1-8.876,0L184,481.615l-19.562,13.041a8,8,0,0,1-8.876,0L136,481.615l-19.562,13.041a8,8,0,0,1-8.876,0L88,481.615,68.438,494.656A8,8,0,0,1,56,488V24a8,8,0,0,1,8-8H304a8,8,0,0,1,8,8V280.4A103.959,103.959,0,0,1,472,368ZM296,442.974A104.2,104.2,0,0,1,269.044,400H248a8,8,0,0,1,0-16h17.231A104.357,104.357,0,0,1,264,368H248a8,8,0,0,1,0-16h17.231a103.132,103.132,0,0,1,3.813-16H248a8,8,0,0,1,0-16h24a7.97,7.97,0,0,1,3.367.75A104.587,104.587,0,0,1,296,293.026V32H72V473.052l11.562-7.708a8,8,0,0,1,8.876,0L112,478.385l19.562-13.041a8,8,0,0,1,8.876,0L160,478.385l19.562-13.041a8,8,0,0,1,8.876,0L208,478.385l19.562-13.041a8,8,0,0,1,8.876,0L256,478.385l19.562-13.041a8,8,0,0,1,8.876,0L296,473.052ZM456,368a88,88,0,1,0-88,88A88.1,88.1,0,0,0,456,368Zm-59.884-46.86a8,8,0,0,0-10.976,2.744l-48,80a8,8,0,1,0,13.72,8.232l48-80A8,8,0,0,0,396.116,321.14ZM336,360a24,24,0,1,1,24-24A24.027,24.027,0,0,1,336,360Zm8-24a8,8,0,1,0-8,8A8.009,8.009,0,0,0,344,336Zm80,64a24,24,0,1,1-24-24A24.027,24.027,0,0,1,424,400Zm-16,0a8,8,0,1,0-8,8A8.009,8.009,0,0,0,408,400Z" style="fill:url(#linear-gradient)"/></svg>
