<?xml version="1.0" standalone="no"?>
<!DOCTYPE svg PUBLIC "-//W3C//DTD SVG 20010904//EN"
 "http://www.w3.org/TR/2001/REC-SVG-20010904/DTD/svg10.dtd">
<svg version="1.0" xmlns="http://www.w3.org/2000/svg"
 width="1259.000000pt" height="459.000000pt" viewBox="0 0 1259.000000 459.000000"
 preserveAspectRatio="xMidYMid meet">
<metadata>
Created by potrace 1.16, written by Peter Selinger 2001-2019
</metadata>
<g transform="translate(0.000000,459.000000) scale(0.100000,-0.100000)"
fill="#000000" stroke="none">
<path d="M1972 4565 c-644 -98 -1220 -465 -1584 -1009 -138 -207 -267 -494
-319 -715 -48 -201 -71 -570 -50 -800 63 -685 478 -1339 1081 -1707 258 -157
598 -284 840 -314 110 -13 611 -13 720 1 261 32 650 188 934 373 360 234 702
671 861 1100 93 252 129 474 129 796 1 252 -10 352 -61 559 -156 645 -601
1197 -1208 1495 -218 108 -395 165 -640 207 -158 28 -562 35 -703 14z m573
-75 c154 -15 287 -44 447 -97 715 -237 1269 -829 1456 -1558 52 -204 66 -317
66 -545 1 -231 -13 -340 -69 -555 -138 -531 -468 -989 -935 -1298 -220 -145
-524 -273 -782 -329 -94 -20 -130 -22 -423 -22 -355 -1 -394 4 -614 70 -888
270 -1513 1018 -1600 1918 -44 453 66 948 301 1346 148 252 436 552 693 722
196 131 547 277 770 322 169 34 479 45 690 26z"/>
<path d="M1980 4244 c-306 -57 -610 -186 -852 -364 -127 -93 -312 -275 -401
-395 -191 -258 -331 -576 -373 -845 -38 -253 -27 -619 27 -827 153 -598 573
-1093 1128 -1331 298 -128 641 -188 931 -163 541 48 1008 282 1346 674 324
376 484 806 484 1293 -1 384 -85 683 -294 1037 -232 394 -607 689 -1071 843
-220 73 -243 76 -590 79 -170 2 -321 1 -335 -1z m593 -79 c124 -16 259 -51
385 -99 618 -236 1061 -755 1200 -1406 24 -117 26 -142 26 -380 1 -240 -1
-263 -26 -381 -37 -171 -87 -309 -169 -469 -90 -175 -177 -296 -319 -443 -207
-216 -423 -362 -688 -467 -689 -272 -1490 -102 -2022 430 -159 159 -275 324
-375 534 -129 271 -184 511 -185 805 0 511 208 996 586 1361 283 273 647 456
1023 515 117 18 429 18 564 0z"/>
<path d="M3097 3674 c-85 -115 -373 -547 -403 -604 -26 -49 -29 -65 -29 -145
0 -83 3 -96 34 -157 l34 -66 -48 -79 c-51 -82 -317 -484 -375 -565 -18 -26
-37 -45 -41 -42 -4 2 -160 210 -345 462 -447 605 -776 1043 -801 1065 -20 17
-21 17 -50 -20 -44 -55 -71 -114 -89 -190 -39 -166 1 -253 380 -823 226 -341
372 -549 391 -557 15 -5 33 6 165 103 47 35 98 67 112 73 35 13 48 1 131 -109
l64 -85 -242 -360 c-250 -372 -396 -598 -434 -674 -21 -40 -21 -45 -7 -59 15
-15 18 -15 35 3 10 11 146 207 301 435 353 518 389 570 400 570 5 0 143 -179
306 -397 382 -512 456 -603 490 -603 48 0 1 70 -478 719 -150 203 -267 369
-264 377 3 7 92 141 198 296 106 156 211 311 233 346 l40 62 110 0 c87 0 119
5 152 20 82 37 164 140 402 507 149 231 159 249 144 264 -29 29 -77 -33 -390
-488 l-69 -102 -50 29 c-27 16 -59 37 -71 47 l-23 18 166 250 c208 314 237
369 203 391 -20 12 -71 -51 -229 -286 -87 -129 -171 -250 -187 -269 -28 -33
-29 -33 -58 -18 -17 8 -47 30 -68 49 l-38 33 134 200 c174 260 237 366 244
409 9 59 -24 46 -80 -30z m-1807 -476 c225 -301 454 -612 598 -813 l114 -160
-49 -45 c-27 -25 -75 -63 -107 -85 l-58 -40 -30 35 c-77 91 -444 630 -576 845
-105 172 -117 204 -117 320 0 73 5 110 17 138 9 20 21 37 26 37 4 0 87 -105
182 -232z"/>
<path d="M5925 4050 c-47 -10 -71 -27 -108 -72 -119 -149 -287 -524 -386 -864
-98 -335 -149 -633 -183 -1064 -17 -216 -18 -1164 -2 -1200 14 -30 274 -190
309 -190 66 0 73 58 67 531 -5 374 3 556 39 848 64 534 204 1169 304 1387 33
72 49 92 59 75 28 -44 131 -996 171 -1576 34 -492 54 -575 167 -681 63 -60
124 -94 167 -94 49 0 136 38 184 81 53 46 64 75 127 334 97 398 381 1139 582
1515 64 121 154 257 177 270 26 14 41 -7 41 -58 0 -89 -149 -1736 -206 -2275
-14 -136 -24 -254 -21 -262 6 -14 315 -225 349 -238 21 -7 23 6 38 268 6 105
33 469 61 810 124 1544 130 1702 73 1933 -47 193 -154 305 -289 306 -87 1
-141 -29 -250 -138 -297 -299 -530 -769 -778 -1570 l-65 -210 -5 95 c-18 294
-30 452 -48 599 -42 360 -111 741 -174 962 -90 318 -252 512 -400 478z"/>
<path d="M12126 3888 c-301 -305 -669 -737 -830 -975 -38 -57 -72 -103 -76
-103 -3 0 -32 53 -64 118 -165 333 -359 531 -604 617 -89 31 -97 31 -143 -1
-44 -30 -69 -85 -69 -148 0 -49 30 -96 120 -191 85 -90 211 -246 269 -334 65
-100 186 -335 201 -391 13 -49 -12 -120 -109 -305 -187 -355 -421 -722 -573
-898 -77 -89 -86 -112 -69 -169 31 -101 166 -188 331 -212 52 -8 95 -13 96
-13 70 110 331 538 382 627 40 69 94 177 120 240 26 62 53 115 60 118 12 4 24
-18 143 -283 123 -273 290 -590 406 -769 l64 -99 194 5 c229 5 233 7 204 76
-11 26 -148 297 -305 602 -303 593 -414 827 -414 874 0 36 34 98 165 296 303
460 502 709 812 1016 150 149 156 159 133 219 -16 41 -115 131 -183 165 -40
20 -75 30 -105 30 -44 0 -47 -2 -156 -112z"/>
<path d="M9657 3043 c-29 -8 -61 -85 -142 -348 -103 -335 -110 -350 -143 -364
-21 -8 -243 -51 -266 -51 -2 0 -11 -6 -18 -14 -12 -12 -22 -7 -67 30 -30 25
-63 44 -77 44 -33 0 -55 -38 -61 -110 l-6 -60 -38 35 c-78 71 -178 100 -255
75 -74 -24 -409 -384 -526 -564 -51 -80 -68 -141 -68 -250 0 -182 68 -328 197
-425 56 -42 205 -101 254 -101 92 0 224 133 329 333 56 105 51 114 74 -134 8
-85 19 -167 25 -181 21 -55 104 -108 170 -108 73 0 75 6 91 325 20 390 30 652
30 793 l0 143 59 -40 c32 -22 61 -47 65 -56 10 -28 7 -86 -14 -203 -31 -175
-43 -332 -38 -491 4 -124 8 -152 26 -187 62 -120 188 -198 289 -179 48 9 116
79 316 325 82 102 156 192 163 200 11 13 4 42 -36 173 -27 87 -50 160 -52 163
-2 2 -38 -43 -80 -99 -124 -167 -300 -357 -332 -357 -18 0 3 147 38 261 20 64
49 169 65 235 16 65 34 138 40 161 l11 41 88 20 c91 22 139 30 497 87 249 39
289 49 315 75 36 36 36 86 1 157 l-31 64 -381 -7 -380 -7 7 29 c3 16 26 81 49
144 67 183 81 280 49 359 -21 53 -61 71 -151 70 -37 -1 -76 -3 -86 -6z m-863
-1096 c17 -27 -52 -149 -185 -326 -218 -289 -304 -375 -344 -341 -24 20 -20
124 9 185 48 105 303 381 426 464 66 44 77 46 94 18z"/>
</g>
</svg>
