<?xml version="1.0"?>
<svg xmlns="http://www.w3.org/2000/svg" xmlns:xlink="http://www.w3.org/1999/xlink" id="Gradient" viewBox="0 0 512 512" width="512" height="512"><defs><linearGradient id="linear-gradient" x1="256" y1="496" x2="256" y2="16" gradientUnits="userSpaceOnUse"><stop offset="0" stop-color="#DAA520"/><stop offset="0.5" stop-color="#FFD700"/><stop offset="1" stop-color="#F0E68C"/></linearGradient></defs><path d="M350.7,305.446A182.962,182.962,0,0,0,384,200C384,98.542,301.458,16,200,16S16,98.542,16,200,98.542,384,200,384a182.962,182.962,0,0,0,105.446-33.3L441.373,486.627a32,32,0,1,0,45.254-45.254ZM32,200c0-92.636,75.364-168,168-168s168,75.364,168,168S292.636,368,200,368,32,292.636,32,200ZM340.863,318.236l23.824,23.823-22.628,22.628-23.823-23.824A185.572,185.572,0,0,0,340.863,318.236ZM475.314,475.314a16,16,0,0,1-22.628,0L353.373,376,376,353.373l99.314,99.313a16,16,0,0,1,0,22.628ZM200,56C120.6,56,56,120.6,56,200s64.6,144,144,144,144-64.6,144-144S279.4,56,200,56Zm0,272A128,128,0,1,1,328,200,128.144,128.144,0,0,1,200,328Zm96-96h-8.367A88.145,88.145,0,0,0,208,152.367V136a8,8,0,0,0,0-16H192a8,8,0,0,0,0,16v16.367A88.145,88.145,0,0,0,112.367,232H104a8,8,0,0,0,0,16H296a8,8,0,0,0,0-16Zm-96-64a72.1,72.1,0,0,1,71.545,64H128.455A72.1,72.1,0,0,1,200,168Z" style="fill:url(#linear-gradient)"/></svg>
