<?xml version="1.0" standalone="no"?>
<!DOCTYPE svg PUBLIC "-//W3C//DTD SVG 20010904//EN"
 "http://www.w3.org/TR/2001/REC-SVG-20010904/DTD/svg10.dtd">
<svg version="1.0" xmlns="http://www.w3.org/2000/svg"
 width="616.000000pt" height="221.000000pt" viewBox="0 0 616.000000 221.000000"
 preserveAspectRatio="xMidYMid meet">
<metadata>
MatX LOGO
</metadata>
<g transform="translate(0.000000,221.000000) scale(0.100000,-0.100000)"
fill="url(#skyGradient)" stroke="none" filter="url(#drop-shadow)">
<path d="M1020 2199 c-442 -54 -815 -376 -936 -810 -35 -127 -44 -350 -20
-483 45 -236 152 -433 327 -602 133 -127 302 -222 486 -271 88 -24 115 -27
273 -27 158 0 185 3 275 27 119 32 294 117 386 186 133 101 267 264 335 409
71 150 104 302 104 479 0 461 -283 865 -720 1030 -147 56 -356 81 -510 62z
m345 -48 c430 -89 764 -434 840 -866 95 -549 -247 -1076 -793 -1222 -86 -23
-116 -26 -262 -26 -146 0 -176 3 -263 26 -412 110 -720 442 -792 852 -44 253
5 514 138 741 72 124 237 289 361 361 109 64 223 109 336 134 118 25 316 25
435 0z"/>
<path d="M994 2040 c-375 -68 -665 -335 -766 -709 -29 -107 -31 -334 -4 -441
102 -402 415 -680 824 -731 222 -28 482 42 661 177 314 237 453 618 361 994
-27 115 -114 286 -191 378 -119 144 -287 253 -474 307 -73 22 -116 28 -225 30
-74 2 -158 0 -186 -5z m379 -49 c271 -71 490 -254 607 -504 105 -224 113 -500
21 -727 -154 -377 -546 -614 -943 -570 -641 71 -1015 750 -728 1320 127 251
358 430 634 490 118 26 294 22 409 -9z"/>
<path d="M1441 1630 c-108 -159 -115 -173 -115 -219 0 -29 7 -59 17 -74 9 -15
17 -31 17 -37 0 -12 -220 -344 -224 -338 -2 1 -119 161 -261 353 -142 193
-268 360 -279 373 l-21 23 -22 -28 c-13 -15 -28 -51 -34 -79 -15 -67 -4 -100
79 -234 87 -140 284 -430 292 -430 3 0 31 18 61 41 87 66 82 65 127 5 l41 -54
-170 -252 c-98 -146 -168 -259 -165 -267 3 -8 9 -12 13 -9 5 2 82 115 173 250
91 135 167 245 170 245 3 0 86 -110 185 -244 161 -219 205 -269 205 -234 0 5
-84 123 -186 261 l-186 251 117 171 116 172 52 0 c90 -1 110 16 229 197 59 89
108 166 109 172 3 35 -32 -2 -117 -127 -53 -79 -99 -145 -100 -147 -4 -5 -74
39 -74 47 0 3 44 71 97 149 71 105 94 146 86 154 -13 13 -28 -7 -138 -174 -38
-59 -74 -107 -80 -107 -5 0 -23 11 -40 24 l-30 24 98 146 c86 130 104 167 79
166 -4 -1 -58 -77 -121 -170z m-637 -273 c113 -153 206 -282 206 -286 0 -8
-66 -60 -106 -84 -12 -7 -287 400 -333 490 -23 47 -28 118 -9 158 9 21 14 23
24 13 7 -7 105 -138 218 -291z"/>
<path d="M2852 1922 c-42 -45 -117 -196 -160 -322 -86 -251 -121 -471 -129
-820 -3 -135 -3 -275 1 -311 l7 -65 67 -42 c36 -23 72 -42 79 -42 30 0 36 41
29 209 -10 238 11 477 70 771 47 239 104 413 128 390 14 -15 71 -542 85 -790
12 -201 26 -254 78 -300 56 -50 79 -54 132 -28 53 27 63 44 86 153 61 288 322
895 385 895 4 0 10 -7 14 -15 4 -12 -86 -1006 -109 -1196 l-5 -45 83 -57 c45
-31 86 -57 90 -57 4 0 7 29 7 64 0 36 21 309 46 608 30 358 44 577 41 643 -6
150 -45 243 -114 271 -53 23 -100 5 -165 -63 -150 -159 -259 -388 -387 -813
l-19 -65 -1 60 c-5 278 -74 710 -135 849 -60 134 -144 183 -204 118z"/>
<path d="M5808 1793 c-160 -174 -256 -289 -317 -379 l-48 -71 -33 66 c-74 152
-168 250 -277 291 -56 21 -57 21 -82 2 -18 -13 -27 -30 -29 -55 -3 -33 3 -44
60 -104 35 -38 85 -97 110 -133 51 -72 118 -204 118 -232 0 -59 -255 -492
-334 -567 -20 -19 -36 -43 -36 -53 0 -58 75 -116 163 -125 l42 -5 77 124 c114
183 148 245 168 301 10 28 22 53 27 54 5 2 20 -23 33 -54 46 -115 170 -361
217 -431 l47 -72 98 0 c67 0 98 4 98 12 0 6 -42 93 -94 192 -213 412 -268 527
-262 550 9 36 194 308 289 426 47 58 124 143 172 188 86 82 87 83 75 113 -15
34 -85 87 -127 94 -25 5 -40 -7 -155 -132z"/>
<path d="M4694 1463 c-17 -3 -28 -30 -67 -161 -26 -86 -51 -164 -56 -172 -5
-10 -35 -18 -85 -25 -43 -5 -74 -13 -70 -17 4 -5 3 -8 -1 -8 -5 0 -21 12 -37
27 -23 22 -30 24 -43 13 -8 -7 -15 -28 -15 -48 l0 -35 -22 20 c-34 31 -63 43
-100 43 -28 0 -44 -12 -113 -82 -100 -104 -174 -199 -186 -241 -34 -119 22
-253 126 -297 81 -35 99 -34 150 13 25 23 61 71 79 106 l34 65 6 -35 c3 -19 7
-65 10 -104 5 -61 9 -73 33 -92 34 -28 78 -30 88 -5 6 15 24 406 25 540 l0 52
35 -22 c40 -27 40 -25 19 -143 -21 -117 -23 -271 -5 -305 36 -67 98 -102 150
-85 11 3 66 62 121 131 l101 125 -23 75 -23 76 -47 -64 c-50 -67 -135 -158
-150 -158 -15 0 -8 59 16 134 14 41 30 101 36 134 7 32 16 65 20 72 5 8 82 24
196 41 238 36 233 35 245 63 9 18 7 31 -6 56 l-17 32 -183 -3 -184 -4 6 25 c3
14 16 51 29 82 32 77 33 151 2 172 -22 15 -49 18 -94 9z m-414 -533 c0 -28
-49 -103 -145 -222 -59 -74 -84 -98 -101 -98 -22 0 -24 4 -24 43 0 49 20 82
111 181 58 64 124 116 146 116 7 0 13 -9 13 -20z"/>
</g>
<defs>
        <linearGradient id="skyGradient" x1="100%" y1="100%">
          <stop offset="0%" stop-color="gold" stop-opacity=".8">
            <animate attributeName="stop-color" values="gold;goldenrod;gold;goldenrod;gold;" dur="30s" repeatCount="indefinite" />
          </stop>
          <stop offset="100%" stop-color="gold" stop-opacity=".9">
            <animate attributeName="stop-color" values="gold;goldenrod;darkgoldenrod;goldenrod;gold;goldenrod;darkgoldenrod;goldenrod;gold;" dur="30s" repeatCount="indefinite" />
            <animate attributeName="offset" values=".95;.80;.60;.80;.95;1;.95;.80;.60;.80;.95" dur="15s" repeatCount="indefinite" />
          </stop>
        </linearGradient>
		<filter id="drop-shadow" x="-60%" y="-60%" width="900%" height="300%">
			<feGaussianBlur in="SourceAlpha" stdDeviation="6"/>
			<feOffset dx="6" dy="6" result="offsetblur"/>
			<feFlood flood-color="#000000"/>
			<feComposite in2="offsetblur" operator="in"/>
			<feMerge>
			  <feMergeNode/>
			  <feMergeNode in="SourceGraphic"/>
			</feMerge>
		</filter>
</defs>
</svg>
