<svg xmlns="http://www.w3.org/2000/svg" viewBox="0 0 391.836 391.836"><path d="M192.082 163.102s.223-.721.686-2.046c.48-1.316 1.128-3.277 2.063-5.712 1.838-4.886 4.61-11.779 8.219-19.89 3.604-8.113 8.043-17.443 13.085-27.274 1.239-2.47 2.555-4.95 3.885-7.46a367.327 367.327 0 014.073-7.59c2.752-5.102 5.674-10.21 8.58-15.328 2.979-5.076 5.932-10.167 8.975-15.1l2.249-3.697 2.282-3.629c1.515-2.403 2.994-4.788 4.516-7.096a590.673 590.673 0 018.824-13.275 542.68 542.68 0 018.253-11.693 437.882 437.882 0 017.278-9.709 315.848 315.848 0 015.849-7.348c1.643-2.025 3.019-3.566 3.92-4.639.915-1.063 1.43-1.616 1.43-1.616s-.222.722-.685 2.048c-.477 1.316-1.125 3.279-2.057 5.714a313.466 313.466 0 01-3.44 8.739 439.897 439.897 0 01-4.768 11.157 546.589 546.589 0 01-6.001 12.994 587.758 587.758 0 01-7.085 14.28c-1.237 2.471-2.563 4.944-3.887 7.458l-2.002 3.79c-.688 1.26-1.382 2.525-2.077 3.797-2.751 5.102-5.682 10.205-8.59 15.322-2.98 5.076-5.942 10.161-8.984 15.094a371.036 371.036 0 01-4.535 7.323c-1.51 2.407-3 4.786-4.518 7.095-5.993 9.281-11.854 17.791-17.078 24.969-5.22 7.18-9.804 13.028-13.116 17.063-1.641 2.025-3.016 3.568-3.915 4.642a67.45 67.45 0 01-1.429 1.617z" fill="#f2d383"/><path d="M220.444 99.915c-.142.268-.286.537-.426.805-1.33 2.51-2.645 4.99-3.885 7.46-5.042 9.831-9.481 19.161-13.085 27.274-3.608 8.11-6.381 15.004-8.219 19.89-.935 2.435-1.582 4.395-2.063 5.712-.463 1.325-.686 2.046-.686 2.046s.513-.554 1.429-1.617c.899-1.073 2.274-2.616 3.915-4.642 3.313-4.034 7.896-9.883 13.116-17.063 5.225-7.178 11.085-15.688 17.078-24.969 1.518-2.309 3.009-4.688 4.518-7.095.378-.599.757-1.207 1.136-1.811a34.882 34.882 0 00-12.828-5.99z" fill="#d9a460"/><path d="M264.475 174.823a25.164 25.164 0 001.929-9.688c0-9.566-5.322-17.889-13.167-22.169-.247-12.326-9.324-22.48-21.169-24.395-4.622-5.857-11.778-9.621-19.818-9.621a25.33 25.33 0 00-5.224.544c-4.623-5.196-11.357-8.474-18.86-8.474-7.819 0-14.808 3.557-19.438 9.14a25.206 25.206 0 00-7.728-1.21c-12.2 0-22.378 8.656-24.728 20.162-11.24 2.55-19.635 12.594-19.635 24.606 0 2.801.463 5.492 1.305 8.01a73.667 73.667 0 00-2.33 11.414 25.123 25.123 0 00-5.089 15.196 25.14 25.14 0 006.232 16.596 25.481 25.481 0 00-.118 2.42c0 10.161 6.007 18.913 14.66 22.914 3.21 9.841 12.299 17.018 23.121 17.386a73.452 73.452 0 0017.81 6.65 25.112 25.112 0 0014.783 4.788c4.24 0 8.233-1.051 11.741-2.897a25.181 25.181 0 008.944 1.636c9.013 0 16.918-4.729 21.383-11.837 13.442-.56 24.17-11.63 24.17-25.211 0-.583-.026-1.16-.065-1.733a73.651 73.651 0 004.935-10.382c6.236-4.595 10.285-11.987 10.285-20.329a25.12 25.12 0 00-3.929-13.516z" fill="#997443"/><g fill="#5a3c3d"><circle cx="155.291" cy="228.147" r="5.708"/><circle cx="188.165" cy="246.022" r="5.708"/><circle cx="179.165" cy="228.147" r="5.708"/><circle cx="243.165" cy="201.647" r="5.708"/></g><g fill="#b3874f"><circle cx="147.583" cy="143.481" r="5.708"/><circle cx="171.457" cy="149.189" r="5.708"/><circle cx="171.457" cy="124.26" r="5.708"/><circle cx="192.719" cy="134.189" r="5.708"/></g><path d="M346.661 307.567a25.164 25.164 0 001.929-9.688c0-9.566-5.322-17.889-13.167-22.169-.247-12.326-9.324-22.481-21.169-24.395-4.622-5.858-11.778-9.621-19.818-9.621a25.33 25.33 0 00-5.224.544c-4.623-5.196-11.358-8.474-18.86-8.474-7.819 0-14.808 3.557-19.438 9.14a25.207 25.207 0 00-7.729-1.21c-12.2 0-22.378 8.656-24.728 20.162-11.24 2.55-19.635 12.594-19.635 24.606 0 2.801.463 5.492 1.305 8.01a73.667 73.667 0 00-2.33 11.414 25.123 25.123 0 00-5.089 15.196 25.132 25.132 0 006.232 16.596 25.481 25.481 0 00-.118 2.42c0 10.161 6.007 18.913 14.66 22.914 3.21 9.841 12.299 17.018 23.121 17.386a73.452 73.452 0 0017.81 6.65 25.112 25.112 0 0014.783 4.788c4.24 0 8.233-1.051 11.741-2.897a25.181 25.181 0 008.944 1.636c9.013 0 16.918-4.729 21.383-11.837 13.442-.56 24.17-11.63 24.17-25.211 0-.583-.026-1.16-.065-1.733a73.651 73.651 0 004.935-10.382c6.236-4.595 10.285-11.987 10.285-20.329a25.093 25.093 0 00-3.928-13.516z" fill="#997443"/><g fill="#5a3c3d"><circle cx="237.478" cy="360.892" r="5.708"/><circle cx="270.352" cy="378.767" r="5.708"/><circle cx="261.352" cy="360.892" r="5.708"/><circle cx="325.352" cy="334.392" r="5.708"/></g><g fill="#b3874f"><circle cx="229.77" cy="276.226" r="5.708"/><circle cx="253.644" cy="281.934" r="5.708"/><circle cx="253.644" cy="257.004" r="5.708"/><circle cx="274.905" cy="266.934" r="5.708"/></g><path d="M195.2 307.567a25.164 25.164 0 001.929-9.688c0-9.566-5.322-17.889-13.167-22.169-.247-12.326-9.324-22.481-21.169-24.395-4.622-5.858-11.778-9.621-19.818-9.621a25.33 25.33 0 00-5.224.544c-4.623-5.196-11.357-8.474-18.86-8.474-7.819 0-14.808 3.557-19.438 9.14a25.207 25.207 0 00-7.729-1.21c-12.2 0-22.378 8.656-24.728 20.162-11.24 2.55-19.635 12.594-19.635 24.606 0 2.801.463 5.492 1.305 8.01a73.667 73.667 0 00-2.33 11.414 25.123 25.123 0 00-5.089 15.196 25.132 25.132 0 006.232 16.596 25.481 25.481 0 00-.118 2.42c0 10.161 6.007 18.913 14.66 22.914 3.21 9.841 12.299 17.018 23.121 17.386a73.452 73.452 0 0017.81 6.65 25.112 25.112 0 0014.783 4.788c4.24 0 8.233-1.051 11.741-2.897a25.181 25.181 0 008.944 1.636c9.013 0 16.918-4.729 21.383-11.837 13.442-.56 24.17-11.63 24.17-25.211 0-.583-.026-1.16-.065-1.733a73.651 73.651 0 004.935-10.382c6.236-4.595 10.285-11.987 10.285-20.329a25.102 25.102 0 00-3.928-13.516z" fill="#997443"/><g fill="#5a3c3d"><circle cx="86.017" cy="360.892" r="5.708"/><circle cx="118.891" cy="378.767" r="5.708"/><circle cx="109.891" cy="360.892" r="5.708"/><circle cx="173.891" cy="334.392" r="5.708"/></g><g fill="#b3874f"><circle cx="78.309" cy="276.226" r="5.708"/><circle cx="102.183" cy="281.934" r="5.708"/><circle cx="102.183" cy="257.004" r="5.708"/><circle cx="123.444" cy="266.934" r="5.708"/></g><path d="M294.549 262.914c18.658 18.658 50.676 16.892 50.676 16.892s1.766-32.018-16.892-50.676c-18.658-18.657-50.675-16.892-50.675-16.892s-1.766 32.019 16.891 50.676z" fill="#00783e"/></svg>