<?xml version="1.0"?>
<svg xmlns="http://www.w3.org/2000/svg" xmlns:xlink="http://www.w3.org/1999/xlink" id="Gradient" viewBox="0 0 512 512" width="512" height="512"><defs><linearGradient id="linear-gradient" x1="256" y1="496" x2="256" y2="16" gradientUnits="userSpaceOnUse"><stop offset="0" stop-color="#27c1e6"/><stop offset="0.5" stop-color="#c275e9"/><stop offset="1" stop-color="#f2515d"/></linearGradient></defs><path d="M488,288H88a8,8,0,0,0-8,8v80H24a8,8,0,0,0-8,8V488a8,8,0,0,0,8,8H88a8,8,0,0,0,8-8v-8H263.018a43.337,43.337,0,0,0,20.7-5.278L362.04,432H488a8,8,0,0,0,8-8V296A8,8,0,0,0,488,288ZM80,480H32V392H80ZM325.754,304l-4,16H270.246l-4-16Zm-51.968,64h51.968l-4,16H270.246l-2.186-8.746.365-.365A35.313,35.313,0,0,0,273.786,368ZM96,304H249.754l3.011,12.044a35.255,35.255,0,0,0-30.875,6.13L183.541,352H96Zm0,64h34.207a43.232,43.232,0,0,0-18.088,32H96Zm180.054,92.676A27.294,27.294,0,0,1,263.018,464H96V416h19.227A12.788,12.788,0,0,0,128,403.227,27.258,27.258,0,0,1,155.227,376h19.666a11.287,11.287,0,0,0,6.893-2.365L231.713,334.8a19.226,19.226,0,0,1,25.4,28.771l-49.261,49.261A11.227,11.227,0,0,0,215.79,432H328.626ZM480,416H227.314l27.552-27.552,1.373,5.492A8,8,0,0,0,264,400h64a8,8,0,0,0,7.761-6.06L342.246,368H480Zm0-64H278.7a35.153,35.153,0,0,0-2.843-16H328a8,8,0,0,0,7.761-6.06L342.246,304H480ZM200,144a24,24,0,1,0,24,24A24.027,24.027,0,0,0,200,144Zm0,32a8,8,0,1,1,8-8A8.009,8.009,0,0,1,200,176ZM488,16H424a8,8,0,0,0-8,8v8H248.982a43.337,43.337,0,0,0-20.7,5.278L149.96,80H48a8,8,0,0,0-8,8V248a8,8,0,0,0,8,8H352a8,8,0,0,0,8-8V151.868A43.287,43.287,0,0,0,399.881,112H416v16a8,8,0,0,0,8,8h64a8,8,0,0,0,8-8V24A8,8,0,0,0,488,16ZM344,240H56V96H284.686l-16,16H96a8,8,0,0,0-8,8v8H80a8,8,0,0,0-8,8v64a8,8,0,0,0,8,8h8v8a8,8,0,0,0,8,8H304a8,8,0,0,0,8-8v-8h8a8,8,0,0,0,8-8V160.357L338.745,152H344ZM240.976,184.027a35.361,35.361,0,0,0,49.134,5.8L312,172.8V192h-8a8,8,0,0,0-8,8v8H104v-8a8,8,0,0,0-8-8H88V144h8a8,8,0,0,0,8-8v-8H252.686l-9.111,9.111A35.192,35.192,0,0,0,240.976,184.027ZM416,96H396.773A12.788,12.788,0,0,0,384,108.773,27.258,27.258,0,0,1,356.773,136H337.107a11.287,11.287,0,0,0-6.893,2.365L280.287,177.2a19.226,19.226,0,0,1-25.4-28.771l49.261-49.261A11.227,11.227,0,0,0,296.21,80H183.374l52.572-28.676A27.294,27.294,0,0,1,248.982,48H416Zm64,24H432V32h48Z" style="fill:url(#linear-gradient)"/></svg>
