<svg xmlns="http://www.w3.org/2000/svg" viewBox="0 0 512 512"><ellipse cx="256" cy="315.095" rx="248.485" ry="126.247" fill="#b0bec5"/><path d="M256 441.345c-72.085 0-136.989-15.6-182.378-40.512C89.3 442.676 164.987 474.41 256 474.41s166.7-31.734 182.378-73.577C392.989 425.745 328.085 441.345 256 441.345z" fill="#90a4ae"/><path d="M256 401.267c-127.22 0-208.407-51.035-208.407-86.168S128.78 228.931 256 228.931s208.407 51.035 208.407 86.168S383.22 401.267 256 401.267z" fill="#ff9017"/><path d="M296.02 230.673c101.016 8.962 164.673 50.657 168.217 81.721 9.686-18.343 12.422-39.416 8.235-59.309-40.324-36.256-114.904-61.368-201.417-63.995 5.241 15.144 13.594 29.356 24.965 41.583z" fill="#90a4ae"/><path d="M296.02 230.673c.97 1.043 1.951 2.078 2.964 3.091l2.125 2.126-73.559 73.56 96.407 27.99 21.038 11.293a88.136 88.136 0 0041.539 10.453h.003c23.481 0 45.554-9.141 62.151-25.738a87.519 87.519 0 0015.546-21.054c-3.541-31.064-67.198-72.759-168.214-81.721z" fill="#ff7043"/><path d="M434.521 223.352L303.235 92.066l-5.469 9.414c-22.253 38.305-15.936 86.79 15.388 118.114l73.623 38.174c10.839 7.807 12.104 23.466 2.657 32.911a21.673 21.673 0 01-14.822 6.342l-21.784.507-42.508-42.508-44.635 44.635 65.89 19.129 22.9 12.294c26.364 14.153 58.887 9.359 80.045-11.8 26.489-26.49 26.489-69.437.001-95.926z" fill="#ff5352"/><path d="M206.904 165.807c-52.045 0-95.003 38.903-101.382 89.215 13.394-6.448 28.41-10.061 44.27-10.061 56.443 0 102.2 45.756 102.2 102.2 0 4.399-.279 8.732-.818 12.984 34.274-16.498 57.929-51.556 57.929-92.139.001-56.442-45.756-102.199-102.199-102.199z" fill="#fff"/><path d="M206.904 195.866c-31.958 0-59.113 20.897-68.562 49.738 3.759-.419 7.579-.642 11.45-.642 49.179 0 90.239 34.739 99.995 81.015 17.737-13.156 29.257-34.24 29.257-57.97.001-39.779-32.361-72.141-72.14-72.141z" fill="#d8d7da"/><g fill="#fff"><path d="M238.284 296.008c6.65-7.445 10.702-17.256 10.702-28 0-23.204-18.878-42.082-42.082-42.082-15.575 0-29.192 8.513-36.468 21.123 28.974 5.943 53.476 24.15 67.848 48.959z"/><path d="M251.992 347.167c0 19.708-5.581 38.104-15.24 53.705-104.234-4.308-173.779-43.154-186.895-75.167 4.479-20.971 15.39-39.557 30.58-53.595 15.56-14.398 35.6-23.997 57.793-26.482 3.797-.441 7.655-.661 11.563-.661 56.44 0 102.199 45.749 102.199 102.2z"/></g><path d="M221.933 347.167c0 19.779-8.006 37.724-20.931 50.769-54.196-6.783-96.428-23.055-122.73-41.301a71.99 71.99 0 01-.621-9.469c0-39.788 32.363-72.141 72.141-72.141s72.141 32.354 72.141 72.142z" fill="#d8d7da"/><g fill="#fff"><path d="M191.875 347.167c0 21.813-16.703 39.828-37.994 41.882-11.262-2.916-21.742-6.242-31.391-9.889-9.038-7.725-14.779-19.208-14.779-31.992 0-23.205 18.877-42.082 42.082-42.082s42.082 18.875 42.082 42.081zM378.86 382.936c-33.075 11.012-74.666 18.336-122.86 18.336-5.22 0-10.37-.09-15.44-.261 4.569-35.419 34.918-62.863 71.55-62.863 30.098.001 55.959 18.527 66.75 44.788z"/></g><path d="M349.573 391.132c-23.265 5.38-49.587 8.968-78.513 9.889 4.228-18.767 21.031-32.814 41.05-32.814 16.311.001 30.489 9.329 37.463 22.925z" fill="#d8d7da"/><circle cx="110.215" cy="289.385" r="70.638" fill="#9ccc65"/><path d="M110.215 329.963c-22.376 0-40.579-18.204-40.579-40.579s18.204-40.579 40.579-40.579 40.579 18.204 40.579 40.579-18.203 40.579-40.579 40.579z" fill="#d4e157"/><path d="M512 315.104c0-33.654-23.433-65.593-66.003-90.071a76.749 76.749 0 00-6.163-6.995L308.549 86.753 251.87 30.074l-10.627 10.628 32.424 32.424a108.93 108.93 0 00-2.576-.5c-28.006-5.046-53.852 1.654-74.741 19.379l9.724 11.46c17.472-14.826 38.287-20.254 61.867-16.134 10.465 1.829 19.242 5.226 24.827 7.791l-1.501 2.583c-16.944 29.166-18.46 63.891-5.959 93.646-19.932-20.381-47.714-33.054-78.405-33.054-34.623 0-66.822 16.295-87.389 43.386-13.233 4.318-25.523 9.192-36.786 14.551a77.998 77.998 0 00-16.664 8.706C23.901 249.125 0 280.934 0 315.104c0 34.351 23.935 66.412 67.672 91.036 9.23 21.315 32.537 40.456 66.049 54.132 34.219 13.964 77.646 21.654 122.279 21.654s88.06-7.691 122.279-21.654c33.512-13.676 56.819-32.817 66.049-54.132C488.065 381.516 512 349.455 512 315.104zm-55.108 0c0 16.015-25.532 41.119-74.02 58.646-13.611-26.402-40.675-43.115-70.763-43.115a79.28 79.28 0 00-16.347 1.718 111.17 111.17 0 003.556-5.185 109.667 109.667 0 004.911-8.504l24.475 7.108 22.217 11.927c11.06 5.938 23.158 8.976 35.501 8.976a76.5 76.5 0 0011.124-.82c16.134-2.379 30.757-9.731 42.289-21.263a75.463 75.463 0 0014.211-19.739c1.873 3.636 2.846 7.09 2.846 10.251zm-103.599 67.569c-9.157-13.685-24.459-21.98-41.183-21.98-20.976 0-39.749 13.555-46.709 32.963a477.04 477.04 0 01-9.4.101c-2.136 0-4.252-.02-6.356-.048.277-1.043.574-2.077.901-3.098a108.613 108.613 0 002.814-7.222c10.3-22.411 32.986-37.726 58.751-37.726 23.598 0 44.908 12.678 56.279 32.881a314.55 314.55 0 01-15.097 4.129zm-16.321 3.618c-16.626 3.264-34.906 5.616-54.776 6.733 6.078-10.422 17.438-17.302 29.913-17.302 9.561 0 18.45 3.902 24.863 10.569zM89.048 229.923a62.799 62.799 0 0121.167-3.662c34.806 0 63.123 28.317 63.123 63.123s-28.317 63.123-63.123 63.123-63.123-28.317-63.123-63.123c0-21.17 10.486-39.926 26.527-51.383a231.666 231.666 0 0115.429-8.078zm149.271 52.463a109.828 109.828 0 00-5.291-6.699 109.935 109.935 0 00-49.638-32.952c6.321-5.866 14.701-9.29 23.514-9.29 19.06 0 34.568 15.507 34.568 34.568 0 5.005-1.097 9.897-3.153 14.373zm8.927 14.416a49.43 49.43 0 009.255-28.79c0-27.347-22.249-49.597-49.597-49.597-15.124 0-29.355 7.002-38.697 18.64a78.906 78.906 0 00-11.118-10.165c12.229-14.833 30.363-23.505 49.814-23.505 35.635 0 64.626 28.992 64.626 64.626 0 16.535-6.472 32.454-17.705 44.371a109.42 109.42 0 00-6.578-15.58zm-68.932 30.858a34.38 34.38 0 016.046 19.506c0 17.187-13.068 31.991-29.97 34.252-16.763-4.417-30.329-9.423-40.746-13.969 27.752-1.205 51.781-16.949 64.67-39.789zm21.075 19.507c0-13.214-5.206-25.68-14.433-34.946a77.759 77.759 0 003.173-17.026c16.271 12.064 26.289 31.351 26.289 51.973 0 15.912-5.759 30.981-16.279 42.829a380.977 380.977 0 01-18.711-2.986c12.197-9.052 19.961-23.547 19.961-39.844zm-12.019-70.206a77.488 77.488 0 00-5.612-18.983c37.184 13.171 62.719 48.339 62.719 89.188a94.704 94.704 0 01-5.102 30.677 79.1 79.1 0 00-2.914 7.481 93.76 93.76 0 01-3.891 7.83 433.112 433.112 0 01-16.938-1.204c8.973-13.121 13.815-28.594 13.815-44.783.001-29.294-16.388-56.403-42.077-70.206zm129.179-5.084l25.652 25.652-12.796 12.796-19.122-5.552a109.549 109.549 0 006.266-32.896zm130.324-.562c0 9.713-2.295 19.067-6.603 27.468l-37.282-19.207c.314-2.154.394-4.355.214-6.57a29.271 29.271 0 00-1.663-7.633l41.625-14.942a60.333 60.333 0 013.709 20.884zm-52.124 24.68a29.382 29.382 0 002.285-2.579l34.683 17.867a60.86 60.86 0 01-2.51 2.682c-11.015 11.015-25.288 17.042-39.947 17.681l-2.313-30.068a29.294 29.294 0 007.802-5.583zm-22.644 8.602l1.983 25.776a60.99 60.99 0 01-16.059-5.918l-13.989-7.51 11.974-11.974 16.091-.374zm64.043-67.614l-43.68 15.68a29.433 29.433 0 00-1.298-.992l-.446-.322-21.138-10.959 35.672-35.672 23.949 23.949a61.035 61.035 0 016.941 8.316zm-112.286-20.301l46.681-46.68 24.088 24.088-39.042 39.042-31.727-16.45zm-19.599-111.427l.564-.97 55.088 55.088-47.812 47.811c-23.255-28.774-26.743-69.389-7.84-101.929zm3.577 119.654l.823.822 74.116 38.429a14.144 14.144 0 015.444 10.056 14.135 14.135 0 01-4.101 11.151 14.099 14.099 0 01-9.683 4.144l-18.569.433-40.896-40.895a108.755 108.755 0 00-7.224-24.233c.03.029.059.062.09.093zm-100.936-51.582c52.209 0 94.685 42.476 94.685 94.685 0 31.676-16.167 61.316-42.091 78.735a109.627 109.627 0 00-1.513-17.661c17.973-15.074 28.575-37.565 28.575-61.073 0-43.923-35.734-79.656-79.656-79.656-24.705 0-47.684 11.339-62.748 30.639a77.56 77.56 0 00-14.756-5.374c17.615-25.086 46.429-40.295 77.504-40.295zM256 466.896c-68.771 0-131.093-19.206-160.348-47.178 45.222 18.88 101.285 29.147 160.348 29.147s115.125-10.267 160.348-29.147C387.093 447.69 324.771 466.896 256 466.896zm172.303-69.225c-45.9 23.321-107.091 36.165-172.303 36.165s-126.404-12.844-172.303-36.165c-44.281-22.499-68.668-51.822-68.668-82.567 0-16.028 6.856-32.024 19.953-46.828a77.901 77.901 0 00-2.92 21.108 77.658 77.658 0 0011.643 40.981c8.422 18.23 31.605 36.713 63.688 50.756 25.235 11.046 68.106 24.739 129.035 27.256v.001l.132.005 4.268.177.011-.017c4.932.16 10.01.243 15.16.243 58.341 0 113.433-10.879 155.128-30.634 38.067-18.036 60.794-41.606 60.794-63.049 0-8.937-4.044-18.511-11.713-27.876a75.984 75.984 0 001.693-15.912c0-6.629-.868-13.122-2.516-19.365 24.414 18.935 37.584 40.814 37.584 63.153.002 30.746-24.385 60.069-68.666 82.568z"/><path d="M110.215 337.478c26.519 0 48.094-21.574 48.094-48.094s-21.575-48.094-48.094-48.094-48.094 21.574-48.094 48.094 21.575 48.094 48.094 48.094zm-33.064-48.094a32.86 32.86 0 014.065-15.867l17.871 17.871-16.355 16.355a32.877 32.877 0 01-5.581-18.359zm16.561 28.633l16.002-16.001 16.368 16.368a32.86 32.86 0 01-15.867 4.065 32.87 32.87 0 01-16.503-4.432zm45.137-45.136a32.842 32.842 0 014.431 16.502 32.865 32.865 0 01-5.993 18.949l-16.945-16.945 18.507-18.506zM128.574 261.9l-18.86 18.86-18.448-18.448a32.872 32.872 0 0118.949-5.993 32.87 32.87 0 0118.359 5.581z"/><path fill="#fff" d="M317.066 163.968l-10.627-10.627 10.627-10.627 10.627 10.627z"/></svg>