<svg xmlns="http://www.w3.org/2000/svg" viewBox="0 0 512 512"><path d="M503.291 48.732a68.53 68.53 0 00-32.814 58.486v158.807h33.918V48.058l-1.104.674z" fill="#e0e0e2"/><path d="M504.396 60.974V48.058l-1.104.674a68.53 68.53 0 00-32.814 58.486v158.807h15.956V107.218a68.51 68.51 0 0117.962-46.244z" fill="#c6c5cb"/><g fill="#e0e0e2"><path d="M486.432 107.218v158.807h17.962V60.974a68.53 68.53 0 00-17.962 46.244zM69.761 143.727H7.604v5.507c0 17.658 14.314 31.972 31.972 31.972s31.972-14.314 31.972-31.972v-5.507h-1.787z"/></g><path d="M39.577 165.155c-13.961 0-25.826-8.953-30.184-21.427H7.604v5.507c0 17.658 14.314 31.972 31.972 31.972s31.972-14.314 31.972-31.972v-5.507h-1.789c-4.357 12.474-16.221 21.427-30.182 21.427z" fill="#c6c5cb"/><circle cx="256.751" cy="282.159" r="187.745" fill="#d2e7f8"/><circle cx="256.751" cy="282.159" r="118.424" fill="#b3d8f5"/><path d="M256.747 86.809C149.033 86.809 61.4 174.442 61.4 282.156c0 107.715 87.633 195.348 195.347 195.348 107.715 0 195.347-87.633 195.347-195.348 0-107.715-87.632-195.347-195.347-195.347zm0 375.486c-99.328 0-180.138-80.81-180.138-180.139s80.81-180.138 180.138-180.138c99.329 0 180.138 80.809 180.138 180.138s-80.809 180.139-180.138 180.139z"/><path d="M145.742 282.156c0-61.208 49.797-111.004 111.005-111.004 17.825 0 34.844 4.093 50.584 12.167l6.941-13.534c-17.908-9.185-37.262-13.842-57.524-13.842-69.594 0-126.214 56.619-126.214 126.213a126.55 126.55 0 004.392 33.119l14.678-3.983a111.234 111.234 0 01-3.862-29.136zM156.761 330.436l-13.691 6.624c7.979 16.492 19.725 31.348 33.97 42.961l9.611-11.787c-12.535-10.221-22.871-23.291-29.89-37.798zM333.721 182.124l-9.282 12.046c27.526 21.212 43.314 53.281 43.314 87.985 0 61.208-49.797 111.005-111.005 111.005-21.791 0-42.88-6.309-60.991-18.241l-8.368 12.699c20.602 13.575 44.585 20.751 69.359 20.751 69.595 0 126.214-56.619 126.214-126.214-.002-39.457-17.949-75.917-49.241-100.031zM79.097 151.331h.057V48.058H63.945v88.065H47.181V48.058H31.972v88.065H15.209V48.058H0v103.274h.057c.96 18.283 14.386 33.312 31.916 36.738V469.9h15.209V188.07c17.528-3.427 30.954-18.455 31.915-36.739zm-39.52 22.271c-12.73 0-23.211-9.813-24.278-22.27h48.557c-1.069 12.457-11.55 22.27-24.279 22.27zM462.872 107.218V273.63h33.919V469.9H512V34.496l-12.672 7.747c-22.487 13.732-36.456 38.627-36.456 64.975zm33.919 73.988v77.215H478.08V107.217c0-16.624 6.948-32.525 18.711-43.896v117.885z"/></svg>