<svg xmlns="http://www.w3.org/2000/svg" viewBox="0 0 358.159 358.159" width="512" height="512"><path d="M260.423 127.69c5.76 3.01 9.82 8.82 10.4 15.62a19.47 19.47 0 017.83-1.65c10.77 0 19.5 8.73 19.5 19.5 0 .61-.04 1.21-.09 1.81.52-.05 1.05-.08 1.59-.08 10.77 0 19.5 8.73 19.5 19.5H39.003c0-10.77 8.73-19.5 19.5-19.5.54 0 1.07.03 1.59.08-.05-.6-.09-1.2-.09-1.81 0-10.77 8.73-19.5 19.5-19.5 2.79 0 5.44.6 7.84 1.65.84-9.99 9.2-17.83 19.41-17.83 3.71 0 7.16 1.05 10.11 2.85 2.53-7.84 9.88-13.52 18.56-13.52 4.82 0 9.23 1.76 12.63 4.66 3.22-6.32 9.78-10.66 17.37-10.66 5.32 0 10.14 2.14 13.66 5.59 3.52-3.45 8.33-5.59 13.66-5.59 7.58 0 14.14 4.34 17.36 10.66 3.41-2.9 7.81-4.66 12.64-4.66 3.19 0 6.2.77 8.85 2.12 4.58 2.34 8.11 6.44 9.7 11.4a19.437 19.437 0 0119.13-.64z" fill="#f2f2f2"/><g fill="#e6e6e6"><path d="M214.328 116.72a19.566 19.566 0 014.221 2.75 19.551 19.551 0 013.286-4.619c-2.68.124-5.219.77-7.507 1.869zM128.999 162.89c.54 0 1.07.03 1.59.08-.05-.6-.09-1.2-.09-1.81 0-10.77 8.73-19.5 19.5-19.5 2.79 0 5.44.6 7.84 1.65.84-9.99 9.2-17.83 19.41-17.83 3.71 0 7.16 1.05 10.11 2.85 2.53-7.84 9.88-13.52 18.56-13.52.302 0 .598.027.897.041-3.545-3.716-8.533-6.041-14.073-6.041-5.33 0-10.14 2.14-13.66 5.59-3.52-3.45-8.34-5.59-13.66-5.59-7.59 0-14.15 4.34-17.37 10.66-3.4-2.9-7.81-4.66-12.63-4.66-8.68 0-16.03 5.68-18.56 13.52-2.95-1.8-6.4-2.85-10.11-2.85-10.21 0-18.57 7.84-19.41 17.83-2.4-1.05-5.05-1.65-7.84-1.65-10.77 0-19.5 8.73-19.5 19.5 0 .61.04 1.21.09 1.81-.52-.05-1.05-.08-1.59-.08-10.77 0-19.5 8.73-19.5 19.5h70.496c0-10.77 8.73-19.5 19.5-19.5z"/></g><path d="M308.603 315.65v2.14c0 18.15-14.71 32.87-32.87 32.87H82.423c-18.16 0-32.87-14.72-32.87-32.87v-2.14h259.05z" fill="#e6e6e6"/><path d="M107.553 317.79v-2.14h-58v2.14c0 18.15 14.72 32.87 32.87 32.87h58c-18.15 0-32.87-14.72-32.87-32.87z" fill="#ccc"/><path d="M319.153 182.39h13.96c0 56.89-30.85 106.59-76.74 133.26h-154.58c-45.9-26.67-76.75-76.37-76.75-133.26H319.153z" fill="#2ba5f7"/><path d="M103.039 182.39H25.042c0 56.89 30.85 106.59 76.75 133.26h77.996c-45.899-26.67-76.749-76.37-76.749-133.26z" fill="#2197d8"/><path d="M244.823 303.265a7.5 7.5 0 01-3.775-13.986c24.425-14.195 43.434-36.644 53.524-63.21a7.501 7.501 0 0114.024 5.326c-11.309 29.772-32.621 54.935-60.011 70.853a7.47 7.47 0 01-3.762 1.017z" fill="#fff"/><circle cx="307.976" cy="205.574" r="7.5" fill="#fff"/><path d="M318.417 264.153c14.521-24.693 22.197-52.968 22.197-81.768a7.5 7.5 0 00-7.5-7.5h-7.541c-2.761-9.523-10.621-16.901-20.427-18.937-2.435-12.403-13.389-21.788-26.494-21.788-.835 0-1.666.038-2.489.114a27.2 27.2 0 00-5.598-8.222l60.121-89.332a7.5 7.5 0 00-12.443-8.375l-60.792 90.33a26.526 26.526 0 00-6.046-.699c-2.22 0-4.422.277-6.56.816a26.902 26.902 0 00-3.949-4.475l44.93-103.837a7.5 7.5 0 10-13.765-5.957l-44.652 103.195a27.206 27.206 0 00-4.67-.409c-3.679 0-7.295.757-10.633 2.19-4.999-5.173-11.923-8.19-19.367-8.19a26.83 26.83 0 00-13.661 3.707 26.824 26.824 0 00-13.66-3.707c-7.444 0-14.368 3.017-19.368 8.19a26.954 26.954 0 00-10.632-2.19c-8.997 0-17.154 4.402-22.106 11.483a26.79 26.79 0 00-6.561-.816c-10.928 0-20.563 6.704-24.757 16.298a27.114 27.114 0 00-2.49-.114c-13.105 0-24.06 9.385-26.494 21.788-9.806 2.036-17.667 9.414-20.427 18.937h-7.54a7.5 7.5 0 00-7.5 7.5c0 28.8 7.676 57.075 22.197 81.768 9.914 16.858 22.838 31.768 37.993 43.999H49.548a7.5 7.5 0 00-7.5 7.5v2.136c0 22.261 18.111 40.372 40.372 40.372h193.314c22.261 0 40.372-18.111 40.372-40.372v-2.136a7.5 7.5 0 00-7.5-7.5h-28.183c15.156-12.231 28.08-27.141 37.994-43.999zM58.506 170.386c.331 0 .656.029.98.056a7.5 7.5 0 008.079-8.16c-.04-.436-.06-.802-.06-1.122 0-6.616 5.383-11.999 11.999-11.999 1.662 0 3.282.341 4.814 1.015a7.504 7.504 0 0010.492-6.232c.521-6.149 5.767-10.967 11.942-10.967 2.176 0 4.324.607 6.212 1.756a7.502 7.502 0 0011.038-4.106 11.96 11.96 0 0111.416-8.317c3.638 0 6.233 1.561 7.769 2.87a7.494 7.494 0 006.331 1.648 7.503 7.503 0 005.216-3.949c2.066-4.052 6.16-6.569 10.684-6.569 3.159 0 6.143 1.223 8.404 3.445a7.502 7.502 0 0010.513 0 11.93 11.93 0 018.404-3.445c4.524 0 8.618 2.517 10.684 6.568a7.503 7.503 0 005.216 3.949 7.505 7.505 0 006.331-1.648 11.915 11.915 0 016.069-2.738l-8.978 20.749a7.5 7.5 0 006.879 10.481c2.9 0 5.662-1.692 6.887-4.523l8.184-18.915c.048.132.102.26.145.395a7.5 7.5 0 0011.038 4.106 12.166 12.166 0 012.144-1.03l-13.453 19.99a7.5 7.5 0 0012.444 8.376l15.482-23.004a11.802 11.802 0 011.538 4.879 7.502 7.502 0 0010.492 6.232 11.884 11.884 0 014.814-1.015c6.616 0 11.999 5.383 11.999 11.999 0 .319-.02.686-.06 1.122a7.499 7.499 0 008.079 8.161c.324-.026.649-.056.98-.056 3.779 0 7.15 1.76 9.351 4.499H49.155c2.201-2.741 5.572-4.501 9.351-4.501zm217.229 172.773H82.42c-12.15 0-22.333-8.585-24.801-20.008h242.917c-2.468 11.423-12.651 20.008-24.801 20.008zm-21.451-35.008H103.876c-21.065-12.626-38.748-30.422-51.204-51.603-11.904-20.243-18.735-43.147-19.936-66.664h292.688c-1.2 23.516-8.031 46.421-19.937 66.664-12.456 21.181-30.139 38.978-51.203 51.603z" fill="#333"/></svg>